Dixie Chicks Storytellers Mkv 1080p ac3 640 Kbps

Dixie Chicks Storytellers:
1.The Long Way Around
2.Truth No. 2
3.Silent House
4.Cowboy Take Me Away
5.Lullaby
6.Lubbock or Leave it
7.Not Ready to Make Nice
8.Easy Silence
9.So Hard
10.Wide Open Spaces
11.Sin Wagon 


General 
Unique ID : 178636580298079557363089473565962985292 (0x86642767084F9036A01458EB6FEEDF4C) 
Dixie Chicks Storytellers.mkv 
Format : Matroska 
Format version : Version 2 
File size : 2.61 GiB 
Duration : 1h 19mn 
Overall bit rate mode : Variable 
Overall bit rate : 4 680 Kbps 
Movie name : Dixie Chicks Storytellers 
Encoded date : UTC 2012-12-02 05:54:41 
Writing application : mkvmerge v5.7.0 ('The Whirlwind') built on Jul 8 2012 20:08:51 
Writing library : libebml v1.2.3 + libmatroska v1.3.0 

Video 
ID : 1 
Format : AVC 
Format/Info : Advanced Video Codec 
Format profile : High@L4.0 
Format settings, CABAC : Yes 
Format settings, ReFrames : 3 frames 
Codec ID : V_MPEG4/ISO/AVC 
Duration : 1h 19mn 
Bit rate mode : Variable 
Bit rate : 3 947 Kbps 
Maximum bit rate : 25.0 Mbps 
Width : 1 920 pixels 
Height : 1 080 pixels 
Display aspect ratio : 16:9 
Frame rate mode : Constant 
Frame rate : 29.970 fps 
Color space : YUV 
Chroma subsampling : 4:2:0 
Bit depth : 8 bits 
Scan type : Progressive 
Bits/(Pixel*Frame) : 0.064 
Stream size : 2.20 GiB (84%) 
Writing library : x264 core 125 r2208 d9d2288 
Encoding settings : cabac=1 / ref=3 / deblock=1:0:0 / analyse=0x3:0x113 / me=hex / subme=7 / psy=1 / psy_rd=1.00:0.00 / mixed_ref=1 / me_range=16 / chroma_me=1 / trellis=1 / 8x8dct=1 / cqm=0 / deadzone=21,11 / fast_pskip=1 / chroma_qp_offset=-2 / threads=12 / lookahead_threads=2 / sliced_threads=0 / nr=0 / decimate=1 / interlaced=0 / bluray_compat=0 / constrained_intra=0 / bframes=3 / b_pyramid=0 / b_adapt=1 / b_bias=0 / direct=1 / weightb=1 / open_gop=0 / weightp=2 / keyint=300 / keyint_min=30 / scenecut=40 / intra_refresh=0 / rc_lookahead=40 / rc=crf / mbtree=1 / crf=24.0 / qcomp=0.60 / qpmin=0 / qpmax=69 / qpstep=4 / vbv_maxrate=25000 / vbv_bufsize=25000 / crf_max=0.0 / nal_hrd=vbr / ip_ratio=1.40 / aq=1:1.00 
Default : Yes 
Forced : No 

Audio 
ID : 2 
Format : AC-3 
Format/Info : Audio Coding 3 
Mode extension : CM (complete main) 
Format settings, Endianness : Big 
Codec ID : A_AC3 
Duration : 1h 19mn 
Bit rate mode : Constant 
Bit rate : 640 Kbps 
Channel(s) : 6 channels 
Channel positions : Front: L C R, Side: L R, LFE 
Sampling rate : 48.0 KHz 
Bit depth : 16 bits 
Compression mode : Lossy 
Stream size : 366 MiB (14%) 
Language : English 
Default : Yes 
Forced : No 

Menu 
00:00:00.000 : en:Chapter 00 
00:00:10.477 : en:Chapter 01 
00:00:26.526 : en:Chapter 02 
00:02:47.233 : en:Chapter 03 
00:07:34.620 : en:Chapter 04 
00:10:03.970 : en:Chapter 05 
00:14:53.325 : en:Chapter 06 
00:16:45.804 : en:Chapter 07 
00:22:19.004 : en:Chapter 08 
00:24:14.152 : en:Chapter 09 
00:29:30.835 : en:Chapter 10 
00:31:48.973 : en:Chapter 11 
00:37:36.087 : en:Chapter 12 
00:40:28.325 : en:Chapter 13 
00:42:23.807 : en:Chapter 14 
00:46:23.614 : en:Chapter 15 
00:47:57.674 : en:Chapter 16 
00:52:35.519 : en:Chapter 17 
00:54:17.988 : en:Chapter 18 
00:58:30.073 : en:Chapter 19 
01:01:41.164 : en:Chapter 20 
01:06:23.079 : en:Chapter 21 
01:08:53.529 : en:Chapter 22 
01:13:05.681 : en:Chapter 23 
01:15:15.244 : en:Chapter 24 
01:19:06.908 : en:Chapter 25 
